ffmpeg started on 2016-12-02 at 03:26:15
Report written to "Output/x264/results/ffmpeg/old_town_cross_2160p50slower4000k.log"
Command line:
Tools/ffmpeg/ffmpeg -benchmark -y -i Input/y4m/old_town_cross_2160p50.y4m -c:v libx264 -preset slower -b:v 4000k -an Output/x264/encoded/old_town_cross_2160p50slower4000k.mkv
ffmpeg version N-82227-gdb23fde Copyright (c) 2000-2016 the FFmpeg developers
  built with gcc 5.4.0 (Ubuntu 5.4.0-6ubuntu1~16.04.2) 20160609
  configuration: --prefix=/home/jaroslav/ffmpeg_build --pkg-config-flags=--static --extra-cflags=-I/home/jaroslav/ffmpeg_build/include --extra-ldflags=-L/home/jaroslav/ffmpeg_build/lib --bindir=/home/jaroslav/bin --enable-gpl --enable-libass --enable-libfdk-aac --enable-libfreetype --enable-libmp3lame --enable-libopus --enable-libtheora --enable-libvorbis --enable-libvpx --enable-libx264 --enable-libx265 --enable-nvenc --enable-libmfx --enable-libxvid --enable-libgsm --enable-libopencore-amrnb --enable-version3 --enable-nonfree
  libavutil      55. 35.100 / 55. 35.100
  libavcodec     57. 66.101 / 57. 66.101
  libavformat    57. 57.100 / 57. 57.100
  libavdevice    57.  2.100 / 57.  2.100
  libavfilter     6. 66.100 /  6. 66.100
  libswscale      4.  3.100 /  4.  3.100
  libswresample   2.  4.100 /  2.  4.100
  libpostproc    54.  2.100 / 54.  2.100
Input #0, yuv4mpegpipe, from 'Input/y4m/old_town_cross_2160p50.y4m':
  Duration: 00:00:10.00, start: 0.000000, bitrate: 4976642 kb/s
    Stream #0:0: Video: rawvideo (I420 / 0x30323449), yuv420p(progressive), 3840x2160, SAR 1:1 DAR 16:9, 50 fps, 50 tbr, 50 tbn, 50 tbc
[libx264 @ 0x2d83120] using SAR=1/1
[libx264 @ 0x2d83120] DPB size (8 frames, 259200 mbs) > level limit (5 frames, 184320 mbs)
[libx264 @ 0x2d83120] using cpu capabilities: MMX2 SSE2Fast SSSE3 SSE4.2 AVX FMA3 AVX2 LZCNT BMI2
[libx264 @ 0x2d83120] profile High, level 5.2
[libx264 @ 0x2d83120] 264 - core 148 - H.264/MPEG-4 AVC codec - Copyleft 2003-2016 - http://www.videolan.org/x264.html - options: cabac=1 ref=8 deblock=1:0:0 analyse=0x3:0x133 me=umh subme=9 psy=1 psy_rd=1.00:0.00 mixed_ref=1 me_range=16 chroma_me=1 trellis=2 8x8dct=1 cqm=0 deadzone=21,11 fast_pskip=1 chroma_qp_offset=-2 threads=6 lookahead_threads=1 sliced_threads=0 nr=0 decimate=1 interlaced=0 bluray_compat=0 constrained_intra=0 bframes=3 b_pyramid=2 b_adapt=2 b_bias=0 direct=3 weightb=1 open_gop=0 weightp=2 keyint=250 keyint_min=25 scenecut=40 intra_refresh=0 rc_lookahead=60 rc=abr mbtree=1 bitrate=4000 ratetol=1.0 qcomp=0.60 qpmin=0 qpmax=69 qpstep=4 ip_ratio=1.40 aq=1:1.00
Output #0, matroska, to 'Output/x264/encoded/old_town_cross_2160p50slower4000k.mkv':
  Metadata:
    encoder         : Lavf57.57.100
    Stream #0:0: Video: h264 (libx264) (H264 / 0x34363248), yuv420p, 3840x2160 [SAR 1:1 DAR 16:9], q=-1--1, 4000 kb/s, 50 fps, 1k tbn, 50 tbc
    Metadata:
      encoder         : Lavc57.66.101 libx264
    Side data:
      cpb: bitrate max/min/avg: 0/0/4000000 buffer size: 0 vbv_delay: -1
Stream mapping:
  Stream #0:0 -> #0:0 (rawvideo (native) -> h264 (libx264))
Press [q] to stop, [?] for help
frame=   62 fps=0.0 q=0.0 size=       0kB time=00:00:00.00 bitrate=N/A speed=   0x    frame=   67 fps= 17 q=0.0 size=       0kB time=00:00:00.00 bitrate=N/A speed=   0x    frame=   74 fps= 17 q=50.0 size=       1kB time=00:00:00.02 bitrate= 280.4kbits/s speed=0.00469x    frame=   77 fps= 15 q=48.0 size=       1kB time=00:00:00.08 bitrate=  72.7kbits/s speed=0.0162x    frame=   81 fps= 14 q=45.0 size=       1kB time=00:00:00.16 bitrate=  36.6kbits/s speed=0.0282x    frame=   84 fps= 13 q=46.0 size=       1kB time=00:00:00.22 bitrate=  26.6kbits/s speed=0.0355x    frame=   88 fps= 13 q=44.0 size=       1kB time=00:00:00.30 bitrate=  19.6kbits/s speed=0.0436x    frame=   92 fps= 12 q=44.0 size=       1kB time=00:00:00.38 bitrate=  15.5kbits/s speed=0.0498x    frame=   97 fps= 12 q=43.0 size=       1kB time=00:00:00.48 bitrate=  12.2kbits/s speed=0.0585x    frame=  100 fps= 11 q=42.0 size=       1kB time=00:00:00.54 bitrate=  10.9kbits/s speed=0.06x    frame=  104 fps= 11 q=42.0 size=       1kB time=00:00:00.62 bitrate=   9.5kbits/s speed=0.0648x    frame=  107 fps= 10 q=42.0 size=       1kB time=00:00:00.68 bitrate=   8.6kbits/s speed=0.0662x    frame=  111 fps= 10 q=41.0 size=       1kB time=00:00:00.76 bitrate=   7.7kbits/s speed=0.0698x    frame=  115 fps=9.8 q=41.0 size=       1kB time=00:00:00.84 bitrate=   7.0kbits/s speed=0.0717x    frame=  119 fps=9.7 q=41.0 size=       1kB time=00:00:00.92 bitrate=   6.4kbits/s speed=0.0747x    frame=  122 fps=9.3 q=41.0 size=       1kB time=00:00:00.98 bitrate=   6.0kbits/s speed=0.075x    frame=  126 fps=9.2 q=41.0 size=       1kB time=00:00:01.06 bitrate=   5.5kbits/s speed=0.0773x    frame=  130 fps=8.9 q=40.0 size=       1kB time=00:00:01.14 bitrate=   5.2kbits/s speed=0.0777x    frame=  135 fps=8.8 q=40.0 size=       1kB time=00:00:01.24 bitrate=   4.7kbits/s speed=0.0814x    frame=  138 fps=8.5 q=40.0 size=       1kB time=00:00:01.30 bitrate=   4.5kbits/s speed=0.0805x    frame=  142 fps=8.5 q=40.0 size=       1kB time=00:00:01.38 bitrate=   4.3kbits/s speed=0.0828x    frame=  146 fps=8.3 q=40.0 size=       1kB time=00:00:01.46 bitrate=   4.0kbits/s speed=0.0827x    frame=  150 fps=8.1 q=40.0 size=       1kB time=00:00:01.54 bitrate=   3.8kbits/s speed=0.0836x    frame=  154 fps=8.1 q=40.0 size=       1kB time=00:00:01.62 bitrate=   3.6kbits/s speed=0.0849x    frame=  158 fps=8.0 q=40.0 size=       1kB time=00:00:01.70 bitrate=   3.5kbits/s speed=0.0857x    frame=  162 fps=7.9 q=40.0 size=       1kB time=00:00:01.78 bitrate=   3.3kbits/s speed=0.0865x    frame=  165 fps=7.8 q=40.0 size=       1kB time=00:00:01.84 bitrate=   3.2kbits/s speed=0.0868x    frame=  169 fps=7.7 q=40.0 size=       1kB time=00:00:01.92 bitrate=   3.1kbits/s speed=0.0871x    frame=  173 fps=7.6 q=39.0 size=       1kB time=00:00:02.00 bitrate=   2.9kbits/s speed=0.0881x    frame=  175 fps=7.5 q=39.0 size=       1kB time=00:00:02.04 bitrate=   2.9kbits/s speed=0.0876x    frame=  180 fps=7.4 q=39.0 size=       1kB time=00:00:02.14 bitrate=   2.8kbits/s speed=0.0883x    frame=  185 fps=7.4 q=39.0 size=       1kB time=00:00:02.24 bitrate=   2.6kbits/s speed=0.0902x    frame=  188 fps=7.3 q=39.0 size=       1kB time=00:00:02.30 bitrate=   2.6kbits/s speed=0.0897x    frame=  192 fps=7.3 q=39.0 size=       1kB time=00:00:02.38 bitrate=   2.5kbits/s speed=0.09x    frame=  196 fps=7.3 q=39.0 size=       1kB time=00:00:02.46 bitrate=   2.4kbits/s speed=0.0911x    frame=  199 fps=7.1 q=39.0 size=       1kB time=00:00:02.52 bitrate=   2.3kbits/s speed=0.0903x    frame=  204 fps=7.2 q=39.0 size=       1kB time=00:00:02.62 bitrate=   2.2kbits/s speed=0.092x    frame=  205 fps=7.1 q=39.0 size=       1kB time=00:00:02.64 bitrate=   2.2kbits/s speed=0.0909x    frame=  209 fps=7.0 q=39.0 size=       1kB time=00:00:02.72 bitrate=   2.2kbits/s speed=0.0917x    frame=  211 fps=7.0 q=39.0 size=       1kB time=00:00:02.76 bitrate=   2.1kbits/s speed=0.0912x    frame=  216 fps=6.9 q=39.0 size=       1kB time=00:00:02.86 bitrate=   2.1kbits/s speed=0.092x    frame=  219 fps=6.9 q=39.0 size=       1kB time=00:00:02.92 bitrate=   2.0kbits/s speed=0.0918x    frame=  223 fps=6.8 q=39.0 size=       1kB time=00:00:03.00 bitrate=   2.0kbits/s speed=0.0919x    frame=  228 fps=6.8 q=39.0 size=       1kB time=00:00:03.10 bitrate=   1.9kbits/s speed=0.0931x    frame=  230 fps=6.8 q=39.0 size=       1kB time=00:00:03.14 bitrate=   1.9kbits/s speed=0.0928x    frame=  232 fps=6.7 q=39.0 size=       1kB time=00:00:03.18 bitrate=   1.9kbits/s speed=0.0924x    frame=  236 fps=6.8 q=39.0 size=       1kB time=00:00:03.26 bitrate=   1.8kbits/s speed=0.0933x    frame=  239 fps=6.7 q=39.0 size=       1kB time=00:00:03.32 bitrate=   1.8kbits/s speed=0.093x    frame=  243 fps=6.7 q=39.0 size=       1kB time=00:00:03.40 bitrate=   1.7kbits/s speed=0.0931x    frame=  247 fps=6.6 q=39.0 size=       1kB time=00:00:03.48 bitrate=   1.7kbits/s speed=0.0937x    frame=  250 fps=6.6 q=39.0 size=       1kB time=00:00:03.54 bitrate=   1.7kbits/s speed=0.0937x    frame=  254 fps=6.6 q=39.0 size=       1kB time=00:00:03.62 bitrate=   1.6kbits/s speed=0.094x    frame=  258 fps=6.5 q=39.0 size=       1kB time=00:00:03.70 bitrate=   1.6kbits/s speed=0.0938x    frame=  262 fps=6.5 q=39.0 size=       1kB time=00:00:03.78 bitrate=   1.6kbits/s speed=0.0942x    frame=  266 fps=6.5 q=39.0 size=       1kB time=00:00:03.86 bitrate=   1.5kbits/s speed=0.0943x    frame=  270 fps=6.5 q=39.0 size=       1kB time=00:00:03.94 bitrate=   1.5kbits/s speed=0.0946x    frame=  274 fps=6.5 q=39.0 size=       1kB time=00:00:04.02 bitrate=   1.5kbits/s speed=0.0947x    frame=  278 fps=6.4 q=39.0 size=       1kB time=00:00:04.10 bitrate=   1.4kbits/s speed=0.0945x    frame=  282 fps=6.4 q=39.0 size=       1kB time=00:00:04.18 bitrate=   1.4kbits/s speed=0.0951x    frame=  285 fps=6.4 q=38.0 size=       1kB time=00:00:04.24 bitrate=   1.4kbits/s speed=0.095x    frame=  289 fps=6.4 q=38.0 size=       1kB time=00:00:04.32 bitrate=   1.4kbits/s speed=0.0956x    frame=  291 fps=6.4 q=38.0 size=       1kB time=00:00:04.36 bitrate=   1.4kbits/s speed=0.0952x    frame=  295 fps=6.4 q=38.0 size=       1kB time=00:00:04.44 bitrate=   1.3kbits/s speed=0.0958x    frame=  297 fps=6.3 q=38.0 size=       1kB time=00:00:04.48 bitrate=   1.3kbits/s speed=0.0953x    frame=  303 fps=6.3 q=38.0 size=       1kB time=00:00:04.60 bitrate=   1.3kbits/s speed=0.0955x    frame=  309 fps=6.3 q=38.0 size=       1kB time=00:00:04.72 bitrate=   1.2kbits/s speed=0.0958x    frame=  313 fps=6.3 q=38.0 size=       1kB time=00:00:04.80 bitrate=   1.2kbits/s speed=0.0963x    frame=  315 fps=6.3 q=36.0 size=       1kB time=00:00:04.84 bitrate=   1.2kbits/s speed=0.0961x    frame=  319 fps=6.3 q=39.0 size=       1kB time=00:00:04.92 bitrate=   1.2kbits/s speed=0.0966x    frame=  324 fps=6.3 q=39.0 size=    2177kB time=00:00:05.02 bitrate=3551.2kbits/s speed=0.0974x    frame=  328 fps=6.3 q=39.0 size=    2177kB time=00:00:05.10 bitrate=3495.5kbits/s speed=0.0976x    frame=  331 fps=6.3 q=39.0 size=    2177kB time=00:00:05.16 bitrate=3454.9kbits/s speed=0.0975x    frame=  335 fps=6.3 q=39.0 size=    2177kB time=00:00:05.24 bitrate=3402.1kbits/s speed=0.0978x    frame=  339 fps=6.2 q=39.0 size=    2177kB time=00:00:05.32 bitrate=3351.0kbits/s speed=0.0979x    frame=  343 fps=6.2 q=39.0 size=    2177kB time=00:00:05.40 bitrate=3301.4kbits/s speed=0.0979x    frame=  349 fps=6.3 q=39.0 size=    2177kB time=00:00:05.52 bitrate=3229.6kbits/s speed=0.099x    frame=  350 fps=6.2 q=39.0 size=    2177kB time=00:00:05.54 bitrate=3217.9kbits/s speed=0.0978x    frame=  354 fps=6.2 q=39.0 size=    2177kB time=00:00:05.62 bitrate=3172.2kbits/s speed=0.0981x    frame=  358 fps=6.2 q=39.0 size=    2177kB time=00:00:05.70 bitrate=3127.6kbits/s speed=0.0983x    frame=  361 fps=6.2 q=39.0 size=    2177kB time=00:00:05.76 bitrate=3095.1kbits/s speed=0.0983x    frame=  364 fps=6.1 q=39.0 size=    2177kB time=00:00:05.82 bitrate=3063.2kbits/s speed=0.0983x    frame=  368 fps=6.1 q=39.0 size=    2177kB time=00:00:05.90 bitrate=3021.6kbits/s speed=0.0983x    frame=  372 fps=6.1 q=39.0 size=    2177kB time=00:00:05.98 bitrate=2981.2kbits/s speed=0.0984x    frame=  376 fps=6.1 q=39.0 size=    2177kB time=00:00:06.06 bitrate=2941.9kbits/s speed=0.0986x    frame=  379 fps=6.1 q=39.0 size=    2177kB time=00:00:06.12 bitrate=2913.0kbits/s speed=0.0984x    frame=  383 fps=6.1 q=39.0 size=    2177kB time=00:00:06.20 bitrate=2875.4kbits/s speed=0.0984x    frame=  387 fps=6.1 q=39.0 size=    2177kB time=00:00:06.28 bitrate=2838.8kbits/s speed=0.0983x    frame=  392 fps=6.0 q=39.0 size=    2177kB time=00:00:06.38 bitrate=2794.3kbits/s speed=0.0985x    frame=  395 fps=6.0 q=39.0 size=    2177kB time=00:00:06.44 bitrate=2768.3kbits/s speed=0.0983x    frame=  400 fps=6.0 q=39.0 size=    2177kB time=00:00:06.54 bitrate=2726.0kbits/s speed=0.0985x    frame=  403 fps=6.0 q=39.0 size=    2177kB time=00:00:06.60 bitrate=2701.2kbits/s speed=0.0982x    frame=  408 fps=6.0 q=39.0 size=    2177kB time=00:00:06.70 bitrate=2660.9kbits/s speed=0.099x    frame=  409 fps=6.0 q=39.0 size=    2177kB time=00:00:06.72 bitrate=2653.0kbits/s speed=0.0985x    frame=  412 fps=6.0 q=39.0 size=    2177kB time=00:00:06.78 bitrate=2629.5kbits/s speed=0.0983x    frame=  418 fps=5.9 q=39.0 size=    2177kB time=00:00:06.90 bitrate=2583.8kbits/s speed=0.0982x    frame=  423 fps=6.0 q=39.0 size=    2177kB time=00:00:07.00 bitrate=2546.9kbits/s speed=0.0988x    frame=  426 fps=5.9 q=39.0 size=    2177kB time=00:00:07.06 bitrate=2525.2kbits/s speed=0.0984x    frame=  430 fps=5.9 q=39.0 size=    2177kB time=00:00:07.14 bitrate=2496.9kbits/s speed=0.0983x    frame=  434 fps=5.9 q=39.0 size=    2177kB time=00:00:07.22 bitrate=2469.3kbits/s speed=0.0985x    frame=  437 fps=5.9 q=39.0 size=    2177kB time=00:00:07.28 bitrate=2448.9kbits/s speed=0.0986x    frame=  438 fps=5.9 q=39.0 size=    2177kB time=00:00:07.30 bitrate=2442.2kbits/s speed=0.0982x    frame=  442 fps=5.9 q=39.0 size=    2177kB time=00:00:07.38 bitrate=2415.8kbits/s speed=0.0982x    frame=  446 fps=5.9 q=39.0 size=    2177kB time=00:00:07.46 bitrate=2389.8kbits/s speed=0.0983x    frame=  449 fps=5.9 q=39.0 size=    2177kB time=00:00:07.52 bitrate=2370.8kbits/s speed=0.0984x    frame=  453 fps=5.8 q=39.0 size=    2177kB time=00:00:07.60 bitrate=2345.8kbits/s speed=0.098x    frame=  459 fps=5.8 q=39.0 size=    2177kB time=00:00:07.72 bitrate=2309.4kbits/s speed=0.0982x    frame=  463 fps=5.8 q=39.0 size=    2177kB time=00:00:07.80 bitrate=2285.7kbits/s speed=0.0984x    frame=  467 fps=5.8 q=39.0 size=    2177kB time=00:00:07.88 bitrate=2262.5kbits/s speed=0.0983x    frame=  471 fps=5.8 q=39.0 size=    2177kB time=00:00:07.96 bitrate=2239.8kbits/s speed=0.0982x    frame=  475 fps=5.8 q=39.0 size=    2177kB time=00:00:08.04 bitrate=2217.5kbits/s speed=0.0983x    frame=  479 fps=5.8 q=39.0 size=    2177kB time=00:00:08.12 bitrate=2195.6kbits/s speed=0.0982x    frame=  483 fps=5.8 q=39.0 size=    2177kB time=00:00:08.20 bitrate=2174.2kbits/s speed=0.0982x    frame=  487 fps=5.8 q=39.0 size=    2177kB time=00:00:08.28 bitrate=2153.2kbits/s speed=0.0984x    frame=  490 fps=5.8 q=39.0 size=    2177kB time=00:00:08.34 bitrate=2137.7kbits/s speed=0.0985x    frame=  495 fps=5.8 q=39.0 size=    2177kB time=00:00:08.44 bitrate=2112.4kbits/s speed=0.0983x    frame=  498 fps=5.8 q=39.0 size=    2177kB time=00:00:08.50 bitrate=2097.5kbits/s speed=0.0983x    frame=  500 fps=5.0 q=-1.0 Lsize=    4849kB time=00:00:09.94 bitrate=3996.1kbits/s speed= 0.1x    
video:4845kB audio:0kB subtitle:0kB other streams:0kB global headers:0kB muxing overhead: 0.088908%
bench: utime=379.068s
bench: maxrss=2610108kB
[libx264 @ 0x2d83120] frame I:3     Avg QP:35.87  size:144801
[libx264 @ 0x2d83120] frame P:138   Avg QP:37.48  size: 14911
[libx264 @ 0x2d83120] frame B:359   Avg QP:39.71  size:  6876
[libx264 @ 0x2d83120] consecutive B-frames:  1.0%  2.0% 23.4% 73.6%
[libx264 @ 0x2d83120] mb I  I16..4: 42.7% 51.9%  5.4%
[libx264 @ 0x2d83120] mb P  I16..4:  0.1%  0.0%  0.0%  P16..4: 18.3%  0.5%  2.9%  0.0%  0.0%    skip:78.2%
[libx264 @ 0x2d83120] mb B  I16..4:  0.0%  0.0%  0.0%  B16..8: 30.9%  0.0%  0.0%  direct: 0.0%  skip:69.1%  L0:44.7% L1:55.3% BI: 0.0%
[libx264 @ 0x2d83120] final ratefactor: 31.36
[libx264 @ 0x2d83120] 8x8 transform intra:51.4% inter:85.9%
[libx264 @ 0x2d83120] direct mvs  spatial:99.2% temporal:0.8%
[libx264 @ 0x2d83120] coded y,uvDC,uvAC intra: 39.4% 35.7% 10.6% inter: 0.6% 0.8% 0.0%
[libx264 @ 0x2d83120] i16 v,h,dc,p:  7% 17%  1% 75%
[libx264 @ 0x2d83120] i8 v,h,dc,ddl,ddr,vr,hd,vl,hu:  6%  5% 10% 12% 19% 11% 18%  7% 12%
[libx264 @ 0x2d83120] i4 v,h,dc,ddl,ddr,vr,hd,vl,hu:  3%  4%  6% 14% 19% 12% 19%  8% 15%
[libx264 @ 0x2d83120] i8c dc,h,v,p: 15% 67% 11%  7%
[libx264 @ 0x2d83120] Weighted P-Frames: Y:0.7% UV:0.0%
[libx264 @ 0x2d83120] ref P L0: 69.3% 20.2%  6.8%  1.0%  0.9%  0.7%  0.8%  0.3%  0.0%
[libx264 @ 0x2d83120] ref B L0: 90.5%  6.3%  2.1%  0.4%  0.3%  0.3%  0.1%
[libx264 @ 0x2d83120] ref B L1: 98.4%  1.6%
[libx264 @ 0x2d83120] kb/s:3968.48
